<mxfile host="app.diagrams.net" modified="2024-01-08T07:23:32.213Z" agent="Mozilla/5.0 (Windows NT 10.0; Win64; x64) AppleWebKit/537.36 (KHTML, like Gecko) Chrome/120.0.0.0 Safari/537.36 Edg/120.0.0.0" version="22.1.17" etag="khWWEGAKvJ5mVK-qByyD" type="github">
  <diagram name="第 1 页" id="0U3EnKy8S2gSKkuLWDoI">
    <mxGraphModel>
      <root>
        <mxCell id="0" />
        <mxCell id="1" parent="0" />
      </root>
    </mxGraphModel>
  </diagram>
</mxfile>
